<?xml version="1.0" encoding="utf-8"?>
<!-- Generator: Adobe Illustrator 18.1.0, SVG Export Plug-In . SVG Version: 6.00 Build 0)  -->
<!DOCTYPE svg PUBLIC "-//W3C//DTD SVG 1.1//EN" "http://www.w3.org/Graphics/SVG/1.1/DTD/svg11.dtd">
<svg version="1.1" id="Layer_1" xmlns="http://www.w3.org/2000/svg" xmlns:xlink="http://www.w3.org/1999/xlink" x="0px" y="0px"
	 viewBox="0 0 576.2 238" enable-background="new 0 0 576.2 238" xml:space="preserve">
<g>
	<g>
		<rect x="82.2" y="163.9" fill="#929084" width="73.4" height="73.4"/>
	</g>
	<path fill="#FF5000" d="M155.6,81.9c0,0-68,0-73.4,0c0,5.4,0,73.4,0,73.4h73.4V81.9z"/>
	<path fill="#929084" d="M237.5,81.9c0,0-68,0-73.4,0c0,5.4,0,73.4,0,73.4h73.4V81.9z"/>
	<path fill="#8A7277" d="M82.5,81.5c0.2,0.1,0.4,0.3,0.6,0.4c-0.2,0-0.4,0-0.6,0C82.5,81.8,82.5,81.6,82.5,81.5z"/>
	<rect x="82.2" y="0" fill="#929084" width="73.4" height="73.4"/>
	<g>
		<g>
			<circle fill="#929084" cx="63.5" cy="93.1" r="11.1"/>
			<circle fill="#929084" cx="40.6" cy="93.1" r="8.9"/>
			<circle fill="#929084" cx="21.5" cy="93.1" r="7.1"/>
			<circle fill="#929084" cx="5.7" cy="93.1" r="5.7"/>
		</g>
		<g>
			<circle fill="#929084" cx="63.5" cy="144.2" r="11.1"/>
			<circle fill="#929084" cx="40.6" cy="144.2" r="8.9"/>
			<circle fill="#929084" cx="21.5" cy="144.2" r="7.1"/>
			<circle fill="#929084" cx="5.7" cy="144.2" r="5.7"/>
		</g>
		<g>
			<circle fill="#929084" cx="63.5" cy="118.6" r="11.1"/>
			<circle fill="#929084" cx="40.6" cy="118.6" r="8.9"/>
			<circle fill="#929084" cx="21.5" cy="118.6" r="7.1"/>
			<circle fill="#929084" cx="5.7" cy="118.6" r="5.7"/>
		</g>
	</g>
</g>
<g>
	<path d="M312,81.7h7.2l19.3,30.9c1.9,3.1,3.7,6.8,3.7,6.8V81.7h5.9v45.8h-6.9l-19.2-30.8c-2.3-3.7-4-7.2-4-7.2v38H312V81.7z"/>
	<path d="M366.7,122.5h12.2v5.1h-12.6c-7.5,0-14.2-4.2-14.2-15.3s6.5-16.1,15.1-16.1c9.9,0,14.6,5.6,14.6,15.7v2.7h-6
		c0,0-17.4,0-17.5,0C359,121.1,362.6,122.5,366.7,122.5z M367.5,101.2c-5.1,0-8.4,1.9-9.1,8.4h17.4
		C375.4,103.8,372.9,101.2,367.5,101.2z"/>
	<path d="M382.5,101.7v-4.9h5.7v-8.6h6v8.6h10.2v4.9h-10.2v12.9c0,6.2,1.5,7.9,6,7.9h3.2v5.1h-4c-6.7,0-11.2-2.7-11.2-12.4v-13.4
		H382.5z"/>
	<path d="M407.3,113.7V96.7h6V113c0,6.6,1,9.7,6.6,9.7h6V96.7h6v25.9h6c5.6,0,6.6-3.1,6.6-9.7V96.7h6v16.9c0,9.7-3.9,13.9-12.4,13.9
		h-18.5C411.2,127.5,407.3,123.4,407.3,113.7z"/>
	<path d="M453.7,112.3c0-11.3,6.9-16.1,15.8-16.1c8.9,0,15.7,4.8,15.7,16.1s-6.9,15.9-15.8,15.9
		C460.6,128.1,453.7,123.6,453.7,112.3z M479.1,112.3c0-8.6-3.2-11.5-9.7-11.5c-6.4,0-9.6,2.8-9.6,11.5c0,8.6,3.3,11.2,9.7,11.2
		C475.8,123.5,479.1,121,479.1,112.3z"/>
	<path d="M489.3,110.1c0-8.4,3.3-13.3,11.5-13.3h6.6v5.1h-6.3c-4.8,0-5.8,2.8-5.8,8.9v16.8h-6V110.1z"/>
	<path d="M514.6,127.5h-5V81.7h6v30.1l14.2-15.1h6.7l-12,12.5l12.3,18.3h-6.9l-9.3-14.2l-5,5.1L514.6,127.5z"/>
	<path d="M312,136.9h19.3c12.5,0,18,5.8,18,15.8c0,9.8-5.1,15.7-18.1,15.7h-13v14.3H312V136.9z M330.4,163c9,0,12.4-2.2,12.4-9.9
		c0-7.7-2.8-10.7-12.4-10.7h-12.2V163H330.4z"/>
	<path d="M365.7,157.1h-13.5V152h14.1c7.7,0,11.1,5,11.1,13.2v17.6h-17.7c-5.7,0-10.8-2.2-10.8-9.3c0-7.2,4.8-9.2,10.8-9.2h11.8
		C371.2,159.6,370.2,157.1,365.7,157.1z M360,168.9c-3.1,0-5.1,1-5.1,4.5c0,3.5,2.2,4.5,5.1,4.5h11.4v-8.9H360z"/>
	<path d="M380.7,167.5c0-11.1,7.1-15.5,13.9-15.5h12v5.1h-11.7c-4.2,0-8.1,1.9-8.1,10.6c0,8.6,4,10.1,8.1,10.1h11.6v5.1h-12.1
		C387.5,182.8,380.7,178.6,380.7,167.5z"/>
	<path d="M416.2,182.8h-6l-0.7-45.8h6l0.7,30.1l14.2-15.1h6.7l-12,12.5l13.3,18.3h-6.9l-10.2-14.2l-5,5.1V182.8z"/>
	<path d="M455.4,157.1h-13.5V152H456c7.7,0,11.1,5,11.1,13.2v17.6h-17.7c-5.7,0-10.8-2.2-10.8-9.3c0-7.2,4.8-9.2,10.8-9.2h11.8
		C460.9,159.6,459.9,157.1,455.4,157.1z M449.7,168.9c-3.1,0-5.1,1-5.1,4.5c0,3.5,2.2,4.5,5.1,4.5h11.4v-8.9H449.7z"/>
	<path d="M484.7,182.8c-8.7,0-14.1-5.1-14.1-15.7S476,152,484.7,152h14.8v30.8c0,8.1-5.3,13.2-13,13.2h-12.2v-5.1h11.3
		c6,0,7.8-3.3,8-8.1H484.7z M493.6,156.8h-8.2c-6.3,0-8.6,2.8-8.6,10.4c0,7.6,2.4,10.7,8.6,10.7h8.2V156.8z"/>
	<path d="M504.6,136.9h6.3v7.3h-6.3V136.9z M504.7,152h6v30.8h-6V152z"/>
	<path d="M515.8,152h15.7c8.6,0,12.4,4.2,12.4,13.9v16.9h-6v-16.2c0-6.6-1.3-9.7-6.6-9.7h-9.5v25.9h-6V152z"/>
	<path d="M561.4,182.8c-8.7,0-14.1-5.1-14.1-15.7s5.4-15.1,14.1-15.1h14.8v30.8c0,8.1-5.3,13.2-13,13.2H551v-5.1h11.3
		c6,0,7.8-3.3,8-8.1H561.4z M570.3,156.8h-8.2c-6.3,0-8.6,2.8-8.6,10.4c0,7.6,2.4,10.7,8.6,10.7h8.2V156.8z"/>
	<path d="M312,192.2h19.3c12.5,0,18,5.8,18,15.8c0,9.8-5.1,15.7-18.1,15.7h-13V238H312V192.2z M330.4,218.3c9,0,12.4-2.2,12.4-9.9
		c0-7.7-2.8-10.7-12.4-10.7h-12.2v20.6H330.4z"/>
	<path d="M365.7,212.3h-13.5v-5.1h14.1c7.7,0,11.1,5,11.1,13.2V238h-17.7c-5.7,0-10.8-2.2-10.8-9.3c0-7.2,4.8-9.2,10.8-9.2h11.8
		C371.2,214.8,370.2,212.3,365.7,212.3z M360,224.2c-3.1,0-5.1,1-5.1,4.5s2.2,4.5,5.1,4.5h11.4v-8.9H360z"/>
	<path d="M382.1,220.6c0-8.4,3.3-13.3,11.5-13.3h6.6v5.1h-6.3c-4.8,0-5.8,2.8-5.8,8.9V238h-6V220.6z"/>
	<path d="M400.1,212.2v-4.9h5.7l-0.7-8.6h6l0.7,8.6H422v4.9h-10.2v12.9c0,6.2,1.5,7.9,6,7.9h3.2v5.1h-4c-6.7,0-11.2-2.7-11.2-12.4
		v-13.4H400.1z"/>
	<path d="M424.9,207.2h15.7c8.6,0,12.4,4.2,12.4,13.9V238h-6v-16.2c0-6.6-1.3-9.7-6.6-9.7h-9.5V238h-6V207.2z"/>
	<path d="M471.2,233h12.2v5.1h-12.6c-7.5,0-14.2-4.2-14.2-15.3c0-11.1,6.5-16.1,15.1-16.1c9.9,0,14.6,5.6,14.6,15.7v2.7h-6
		c0,0-17.4,0-17.5,0C463.5,231.6,467.2,233,471.2,233z M472,211.7c-5.1,0-8.4,1.9-9.1,8.4h17.4C479.9,214.3,477.5,211.7,472,211.7z"
		/>
	<path d="M490.3,220.6c0-8.4,3.3-13.3,11.5-13.3h6.6v5.1H502c-4.8,0-5.8,2.8-5.8,8.9V238h-6V220.6z"/>
	<path d="M510.3,233h14.5c2.4,0,5.1-0.7,5.1-3.9c0-3.3-1.9-4-4.7-4h-5.2c-5.1,0-10.3-2.2-10.3-9c0-6.9,5.9-8.9,11.1-8.9h12.9v5.1
		h-13.3c-3.1,0-5.1,0.9-5.1,3.7c0,2.7,1.6,3.8,4.6,3.8h5.4c5.5,0,10.3,2.1,10.3,9.1c0,7.1-4.9,9.1-10.1,9.1h-15.1V233z"/>
</g>
</svg>
